<svg width="395" height="423" viewBox="0 0 395 423" fill="none" xmlns="http://www.w3.org/2000/svg">
<g filter="url(#filter0_d_2001_322)">
<path d="M201.398 281.072L204.211 285.072M204.211 285.072L246.398 345.072C254.565 355.239 271.498 376.872 273.898 382.072C276.898 388.572 302.898 408.572 308.898 398.072C323.398 398.072 323.398 400.072 330.898 387.572C347.898 387.572 356.898 386.572 349.898 376.572C342.898 366.572 337.398 358.072 331.398 350.572C325.398 343.072 316.898 326.072 311.398 321.072C306.998 317.072 295.565 304.739 290.398 299.072C287.398 296.239 282.898 292.072 285.898 284.072C290.398 277.572 273.398 261.072 259.898 247.572C246.398 234.072 244.398 229.072 241.898 226.072C239.398 223.072 239.398 222.572 247.898 210.072C254.698 200.072 271.065 176.239 278.398 165.572C291.231 151.239 317.752 117.072 326.898 102.072C339.398 81.5722 354.898 76.0722 352.898 60.0722C352.232 57.2389 351.698 50.5722 354.898 46.5722C358.898 41.5722 354.898 38.0722 343.898 39.5722C332.898 41.0722 327.398 28.0722 327.398 25.0722C327.398 22.0722 328.898 1.07217 317.898 13.0722C309.098 22.6722 302.565 33.0722 300.398 37.0721C299.732 39.9055 298.198 45.6721 297.398 46.0721C296.598 46.4722 269.398 70.5722 255.898 82.5721C254.731 82.7388 251.298 84.9721 246.898 92.5721C242.498 100.172 222.731 120.739 213.398 130.072L193.398 154.072C191.565 156.572 186.498 160.272 180.898 155.072C175.298 149.872 154.565 128.905 144.898 119.072L106.398 74.5721C100.731 69.5721 89.4981 59.3721 89.8981 58.5721C90.2981 57.7721 85.7315 56.9055 83.3981 56.5721C81.8981 54.0721 77.8981 49.5721 73.8981 51.5721C66.8981 51.5721 73.8981 49.0721 53.8981 49.5721C48.6981 51.5721 49.3981 56.4055 50.3981 58.5721C50.7315 60.5721 49.7982 63.5721 43.3982 59.5721C35.3982 54.5721 41.3982 65.0721 39.3982 65.5721C37.3982 66.0721 36.3982 71.5721 37.8982 74.5721C39.3982 77.5721 42.8981 80.5721 39.3982 85.0721C36.5982 88.6721 43.2315 96.9055 46.8982 100.572C46.3982 104.072 46.7982 111.272 52.3982 112.072C58.7982 117.672 61.3982 120.405 61.8982 121.072L81.8982 147.072L120.398 190.572L144.398 217.572C146.232 218.905 148.798 222.972 144.398 228.572C139.998 234.172 128.232 252.572 122.898 261.072L113.398 276.072C110.065 278.572 102.298 286.072 97.8982 296.072C92.3982 308.572 78.3982 327.072 76.8982 329.072C75.6982 330.672 65.0648 343.739 59.8982 350.072C58.5648 349.739 55.1982 350.572 52.3982 356.572C48.8982 364.072 44.3982 366.572 46.8982 368.572C48.8982 370.172 52.0648 366.239 53.3982 364.072C50.7315 368.405 47.2982 376.672 54.8982 375.072C52.0982 382.672 57.7315 386.239 60.8982 387.072C60.2315 393.072 64.5982 405.272 87.3982 406.072C95.3982 408.072 99.8982 415.072 118.398 396.072C130.398 396.072 130.398 388.072 131.898 379.072C133.398 370.072 137.898 379.572 139.398 364.072C143.398 360.472 163.065 335.572 172.398 323.572L196.398 286.072C197.773 283.072 201.261 278.672 204.211 285.072Z" stroke="black" stroke-width="4"/>
<path d="M258.398 195.072C263.565 196.572 274.598 199.372 277.398 198.572C280.898 197.572 288.898 207.072 283.398 216.072C277.898 225.072 262.898 246.072 258.898 246.572" stroke="black" stroke-width="4"/>
<path d="M268.398 256.072C282.565 243.072 307.898 213.672 295.898 200.072C280.898 183.072 286.398 183.572 265.398 184.572" stroke="black" stroke-width="4"/>
<path d="M311.398 124.572C316.732 126.405 328.898 132.172 332.898 140.572C337.898 151.072 352.898 161.572 354.898 162.572C356.898 163.572 371.398 179.572 368.398 192.572C365.398 205.572 369.898 198.072 370.398 219.072C370.898 240.072 350.898 267.572 347.898 269.072C345.498 270.272 341.232 280.572 339.398 285.572C339.732 288.405 337.398 291.572 330.398 290.072C328.898 289.572 306.898 315.572 303.898 313.572" stroke="black" stroke-width="4"/>
<path d="M313.898 323.572L323.898 314.572L333.898 305.572C337.898 304.072 348.998 302.472 351.398 292.072C353.798 281.672 371.398 256.405 379.898 245.072C382.232 232.905 385.498 207.072 379.898 201.072C379.898 190.072 389.398 183.572 365.898 154.072C351.898 146.072 333.398 117.572 320.398 112.072M209.898 293.072C209.398 294.072 206.898 313.572 208.398 317.072C209.898 320.572 214.898 331.072 216.398 334.572C217.598 337.372 227.232 339.405 231.898 340.072C235.398 340.905 244.098 344.272 250.898 351.072" stroke="black" stroke-width="4"/>
<path d="M115.398 185.072C112.065 188.072 104.398 194.772 100.398 197.572C95.3982 201.072 94.3982 216.572 104.898 226.572C115.398 236.572 116.731 241.242 120.898 224.572C123.898 212.572 125.898 213.072 126.898 197.572" stroke="black" stroke-width="4"/>
<path d="M105.898 174.072C102.898 177.572 96.3982 184.672 94.3982 185.072C91.8982 185.572 85.8982 187.072 86.8982 197.572C83.3982 209.572 79.8982 211.072 89.3982 229.072C98.8982 247.072 123.898 259.072 128.898 242.072C133.898 225.072 136.898 221.072 137.898 211.072" stroke="black" stroke-width="4"/>
<path d="M72.8982 135.072C62.5649 136.072 39.8982 143.272 31.8982 164.072C21.8982 190.072 17.8982 195.072 41.8982 256.072C41.8982 258.072 36.3982 285.072 86.3982 315.572" stroke="black" stroke-width="4"/>
<path d="M78.8983 326.572C70.5649 321.572 52.2983 309.072 45.8983 299.072C33.8983 297.072 31.8983 292.072 34.3983 281.072C29.3983 273.072 27.8983 269.572 27.8983 261.072C24.3983 253.072 4.49917 198.421 13.8983 172.572C15.8982 167.072 19.3983 158.572 19.3983 158.572C28.9782 140.361 41.9184 124.072 63.8983 124.072" stroke="black" stroke-width="4"/>
<path d="M172.398 147.072C184.065 132.739 212.298 105.472 231.898 111.072" stroke="black" stroke-width="4"/>
<path d="M163.898 138.072C172.398 123.572 200.498 94.7721 244.898 95.5721" stroke="black" stroke-width="4"/>
</g>
<defs>
<filter id="filter0_d_2001_322" x="-5.72205e-06" y="2.47955e-05" width="394.39" height="422.389" filterUnits="userSpaceOnUse" color-interpolation-filters="sRGB">
<feFlood flood-opacity="0" result="BackgroundImageFix"/>
<feColorMatrix in="SourceAlpha" type="matrix" values="0 0 0 0 0 0 0 0 0 0 0 0 0 0 0 0 0 0 127 0" result="hardAlpha"/>
<feOffset dy="2"/>
<feGaussianBlur stdDeviation="4.7"/>
<feComposite in2="hardAlpha" operator="out"/>
<feColorMatrix type="matrix" values="0 0 0 0 0.631727 0 0 0 0 0.00422984 0 0 0 0 0.879808 0 0 0 0.913725 0"/>
<feBlend mode="normal" in2="BackgroundImageFix" result="effect1_dropShadow_2001_322"/>
<feBlend mode="normal" in="SourceGraphic" in2="effect1_dropShadow_2001_322" result="shape"/>
</filter>
</defs>
</svg>
