<svg width="378" height="408" viewBox="0 0 378 408" fill="none" xmlns="http://www.w3.org/2000/svg">
<path d="M192.998 275.673L195.811 279.673M195.811 279.673L237.998 339.673C246.165 349.839 263.098 371.473 265.498 376.673C268.498 383.173 294.498 403.173 300.498 392.673C314.998 392.673 314.998 394.673 322.498 382.173C339.498 382.173 348.498 381.173 341.498 371.173C334.498 361.173 328.998 352.673 322.998 345.173C316.998 337.673 308.498 320.673 302.998 315.673C298.598 311.673 287.165 299.339 281.998 293.673C278.998 290.839 274.498 286.673 277.498 278.673C281.998 272.173 264.998 255.673 251.498 242.173C237.998 228.673 235.998 223.673 233.498 220.673C230.998 217.673 230.998 217.173 239.498 204.673C246.298 194.673 262.665 170.839 269.998 160.173C282.832 145.839 309.352 111.673 318.498 96.6728C330.998 76.1728 346.498 70.6728 344.498 54.6728C343.832 51.8394 343.298 45.1728 346.498 41.1728C350.498 36.1728 346.498 32.6728 335.498 34.1728C324.498 35.6728 318.998 22.6728 318.998 19.6728C318.998 16.6728 320.498 -4.32724 309.498 7.67276C300.698 17.2728 294.165 27.6727 291.998 31.6727C291.332 34.506 289.798 40.2727 288.998 40.6727C288.198 41.0728 260.998 65.1727 247.498 77.1727C246.332 77.3394 242.898 79.5727 238.498 87.1727C234.098 94.7728 214.332 115.339 204.998 124.673L184.998 148.673C183.165 151.173 178.098 154.873 172.498 149.673C166.898 144.473 146.165 123.506 136.498 113.673L97.9982 69.1727C92.3315 64.1727 81.0982 53.9727 81.4982 53.1727C81.8982 52.3727 77.3315 51.5061 74.9982 51.1727C73.4982 48.6727 69.4982 44.1727 65.4982 46.1727C58.4982 46.1727 65.4982 43.6727 45.4982 44.1727C40.2982 46.1727 40.9982 51.0061 41.9982 53.1727C42.3315 55.1727 41.3982 58.1727 34.9982 54.1727C26.9982 49.1727 32.9982 59.6727 30.9982 60.1727C28.9982 60.6727 27.9982 66.1727 29.4982 69.1727C30.9982 72.1727 34.4982 75.1727 30.9982 79.6727C28.1982 83.2727 34.8316 91.5061 38.4982 95.1727C37.9982 98.6727 38.3982 105.873 43.9982 106.673C50.3982 112.273 52.9982 115.006 53.4982 115.673L73.4982 141.673L111.998 185.173L135.998 212.173C137.832 213.506 140.398 217.573 135.998 223.173C131.598 228.773 119.832 247.173 114.498 255.673L104.998 270.673C101.665 273.173 93.8982 280.673 89.4982 290.673C83.9982 303.173 69.9982 321.673 68.4982 323.673C67.2982 325.273 56.6649 338.339 51.4982 344.673C50.1649 344.339 46.7982 345.173 43.9982 351.173C40.4982 358.673 35.9982 361.173 38.4982 363.173C40.4982 364.773 43.6649 360.839 44.9982 358.673C42.3316 363.006 38.8982 371.273 46.4982 369.673C43.6982 377.273 49.3316 380.839 52.4982 381.673C51.8316 387.673 56.1982 399.873 78.9982 400.673C86.9982 402.673 91.4982 409.673 109.998 390.673C121.998 390.673 121.998 382.673 123.498 373.673C124.998 364.673 129.498 374.173 130.998 358.673C134.998 355.073 154.665 330.173 163.998 318.173L187.998 280.673C189.373 277.673 192.861 273.273 195.811 279.673Z" stroke="#008ED5" stroke-width="8"/>
<path d="M249.998 189.673C255.165 191.173 266.198 193.973 268.998 193.173C272.498 192.173 280.498 201.673 274.998 210.673C269.498 219.673 254.498 240.673 250.498 241.173" stroke="#008ED5" stroke-width="6"/>
<path d="M259.998 250.673C274.165 237.673 299.498 208.273 287.498 194.673C272.498 177.673 277.998 178.173 256.998 179.173" stroke="#008ED5" stroke-width="6"/>
<path d="M302.998 119.173C308.332 121.006 320.498 126.773 324.498 135.173C329.498 145.673 344.498 156.173 346.498 157.173C348.498 158.173 362.998 174.173 359.998 187.173C356.998 200.173 361.498 192.673 361.998 213.673C362.498 234.673 342.498 262.173 339.498 263.673C337.098 264.873 332.832 275.173 330.998 280.173C331.332 283.006 328.998 286.173 321.998 284.673C320.498 284.173 298.498 310.173 295.498 308.173" stroke="#008ED5" stroke-width="6"/>
<path d="M305.498 318.173L315.498 309.173L325.498 300.173C329.498 298.673 340.598 297.073 342.998 286.673C345.398 276.273 362.998 251.006 371.498 239.673C373.832 227.506 377.098 201.673 371.498 195.673C371.498 184.673 380.998 178.173 357.498 148.673C343.498 140.673 324.998 112.173 311.998 106.673M201.498 287.673C200.998 288.673 198.498 308.173 199.998 311.673C201.498 315.173 206.498 325.673 207.998 329.173C209.198 331.973 218.832 334.006 223.498 334.673C226.998 335.506 235.698 338.873 242.498 345.673" stroke="#008ED5" stroke-width="6"/>
<path d="M106.998 179.673C103.665 182.673 95.9982 189.373 91.9982 192.173C86.9982 195.673 85.9982 211.173 96.4982 221.173C106.998 231.173 108.331 235.843 112.498 219.173C115.498 207.173 117.498 207.673 118.498 192.173" stroke="#008ED5" stroke-width="6"/>
<path d="M97.4982 168.673C94.4982 172.173 87.9982 179.273 85.9982 179.673C83.4982 180.173 77.4982 181.673 78.4982 192.173C74.9982 204.173 71.4982 205.673 80.9982 223.673C90.4982 241.673 115.498 253.673 120.498 236.673C125.498 219.673 128.498 215.673 129.498 205.673" stroke="#008ED5" stroke-width="6"/>
<path d="M64.4982 129.673C54.1649 130.673 31.4982 137.873 23.4982 158.673C13.4982 184.673 9.49824 189.673 33.4982 250.673C33.4982 252.673 27.9982 279.673 77.9982 310.173" stroke="#008ED5" stroke-width="6"/>
<path d="M70.4983 321.173C62.165 316.173 43.8983 303.673 37.4983 293.673C25.4983 291.673 23.4983 286.673 25.9983 275.673C20.9983 267.673 19.4983 264.173 19.4983 255.673C15.9983 247.673 -3.90077 193.021 5.49832 167.173C7.49823 161.673 10.9983 153.173 10.9983 153.173C20.5783 134.962 33.5185 118.673 55.4983 118.673" stroke="#008ED5" stroke-width="6"/>
<path d="M163.998 141.673C175.665 127.339 203.898 100.073 223.498 105.673" stroke="#008ED5" stroke-width="6"/>
<path d="M155.498 132.673C163.998 118.173 192.098 89.3727 236.498 90.1727" stroke="#008ED5" stroke-width="6"/>
</svg>
